<svg viewBox="0 0 96 96" fill="none" xmlns="http://www.w3.org/2000/svg">
  <rect width="96" height="96" rx="24" fill="#02734A" />
  <path d="M56.1656 24C59.6261 24 62.5589 24.6172 64.9633 25.8531C67.3902 27.0666 69.1428 28.8087 70.2215 31.0783C71.3226 33.3255 71.5698 36.0109 70.9631 39.1345C70.4687 41.7861 69.3229 44.1349 67.5251 46.1798C65.7499 48.2247 63.4237 49.8309 60.5475 50.9994C59.5677 51.3929 58.5354 51.7194 57.4523 51.9831L61.0529 63.1683C61.4349 64.4267 61.8058 65.4043 62.1653 66.1009C62.5248 66.775 62.8958 67.2468 63.2777 67.5164C63.6597 67.7635 64.0754 67.8872 64.5247 67.8872C64.974 67.8872 65.3784 67.7749 65.7379 67.5503C66.1198 67.3031 66.4908 66.9321 66.8503 66.4379C66.9626 66.2806 67.1091 66.1798 67.2889 66.1348C67.4685 66.0674 67.6256 66.0561 67.7604 66.1009C67.9625 66.1683 68.0862 66.3141 68.1312 66.5385C68.1986 66.7408 68.1653 66.9776 68.0305 67.2472C67.4462 68.6403 66.4686 69.7864 65.0979 70.6852C63.7271 71.5616 62.1762 72 60.4458 72C59.5021 72 58.6594 71.7974 57.9179 71.393C57.1989 70.9885 56.5589 70.3028 55.9971 69.3366C55.4353 68.3478 54.9066 66.9994 54.4122 65.2915L50.9258 52.7799C50.8412 52.7815 50.7563 52.7846 50.6712 52.7857C48.7027 52.7857 46.9844 52.596 45.5157 52.2212L45.9484 50.6073C45.9721 50.614 45.9954 50.622 46.0191 50.6286C47.2326 50.9657 48.5477 51.134 49.9635 51.134C52.6149 51.1339 54.9069 50.6176 56.8394 49.5839C58.7945 48.5502 60.3901 47.0782 61.626 45.1681C62.8619 43.258 63.7273 41.0109 64.2217 38.4267C64.761 35.5503 64.7154 33.1683 64.0862 31.2806C63.457 29.3705 62.3672 27.9432 60.8167 26.9994C59.2661 26.0557 57.367 25.5839 55.1199 25.5839C54.0904 25.584 53.2394 25.6911 52.5669 25.9054L53.079 24H56.1656Z" fill="white" />
  <path d="M47.4646 27.7497C47.3469 27.9855 47.2436 28.2405 47.1577 28.5165C46.9105 29.5052 46.5615 30.8196 46.1121 32.4599C45.6627 34.0777 45.1577 35.9095 44.5959 37.9543C44.0566 39.9767 43.4717 42.123 42.8426 44.3926C42.3357 46.2697 41.8293 48.1549 41.3225 50.0477C41.3307 50.051 41.3395 50.0531 41.3477 50.0564L40.8985 51.6945C40.8941 51.6929 40.8893 51.6923 40.8849 51.6907C40.3494 53.7484 39.8341 55.7205 39.3368 57.6062C38.7975 59.6286 38.3144 61.4601 37.8874 63.1006C37.483 64.7185 37.1796 66.0108 36.9774 66.9771C36.8201 67.5837 36.8316 68.0555 37.0113 68.3926C37.191 68.7297 37.4944 68.9436 37.9213 69.0335L40.5838 69.4382C40.8984 69.5281 41.1352 69.6403 41.2925 69.7751C41.4496 69.9099 41.5278 70.0899 41.5278 70.3144C41.5277 70.584 41.4155 70.7971 41.1909 70.9544C40.9886 71.1117 40.6853 71.1906 40.2808 71.1906H25.0447C24.6629 71.1906 24.3935 71.123 24.2362 70.9883C24.0789 70.831 24 70.6398 24 70.4151C24.0001 70.1457 24.1011 69.9324 24.303 69.7751C24.5053 69.6178 24.7754 69.5056 25.1124 69.4382L27.5726 69.0674C28.1568 68.9775 28.618 68.775 28.9551 68.4604C29.3146 68.1233 29.5952 67.6401 29.7974 67.011C30.0671 66.0672 30.4266 64.7862 30.876 63.1683C31.3254 61.5279 31.8313 59.6736 32.3931 57.6062C32.9773 55.5389 33.5841 53.3592 34.2132 51.0672C34.8425 48.775 35.4605 46.4824 36.0673 44.1902C36.674 41.8982 37.2475 39.7185 37.7868 37.6512C38.3485 35.5839 38.8316 33.7295 39.2361 32.0891C39.663 30.4489 39.9778 29.1458 40.1801 28.1796C40.3149 27.5504 40.3035 27.0892 40.1462 26.797C40.0113 26.4826 39.6851 26.2694 39.1683 26.1571L36.5398 25.7185C36.2027 25.6286 35.9659 25.5164 35.8311 25.3816C35.6964 25.2468 35.6297 25.0783 35.6297 24.8762C35.6297 24.6065 35.7419 24.3926 35.9666 24.2353C36.1913 24.0781 36.4949 24 36.8767 24H48.4928L47.4646 27.7497Z" fill="white" />
</svg>
